<mxfile compressed="false" version="17.4.2" type="device">
<diagram id="a" name="Page-1">
  <mxGraphModel dx="532" dy="766" grid="1" gridSize="10" guides="1" tooltips="1" connect="1" arrows="1" fold="1" page="1" pageScale="1" pageWidth="413" pageHeight="583" math="0" shadow="0">
    <root>
      <mxCell id="0" />
      <mxCell id="1" parent="0" />
      <mxCell id="box1" value="branch-0" style="rounded=0;whiteSpace=wrap;html=1;fillColor=#f8cecc;strokeColor=#b85450;" parent="1" vertex="1">
        <mxGeometry x="420" y="20" width="80" height="20" as="geometry" />
      </mxCell>
    <mxCell id="l15" value="" style="endArrow=none;html=1;rounded=1;exitX=0.5;exitY=0;exitDx=0;exitDy=0;entryX=0;entryY=0.5;entryDx=0;entryDy=0;" edge="1" parent="1" source="b8" target="b12">
      <mxGeometry width="50" height="50" relative="1" as="geometry">
        <mxPoint x="150" y="70" as="sourcePoint" />
        <mxPoint x="300" y="30" as="targetPoint" />
        <Array as="points">
          <mxPoint x="150" y="30" />
        </Array>
      </mxGeometry>
    </mxCell>
      <mxCell id="b12" value="o" style="ellipse;whiteSpace=wrap;html=1;fillColor=#f8cecc;strokeColor=#b85450;" vertex="1" parent="1">
        <mxGeometry x="300" y="20" width="20" height="20" as="geometry" />
      </mxCell>
    <mxCell id="l16" value="" style="endArrow=none;html=1;rounded=1;exitX=1;exitY=0.5;exitDx=0;exitDy=0;entryX=0;entryY=0.5;entryDx=0;entryDy=0;" edge="1" parent="1" source="b12" target="b14">
      <mxGeometry width="50" height="50" relative="1" as="geometry">
        <mxPoint x="320" y="30" as="sourcePoint" />
        <mxPoint x="380" y="30" as="targetPoint" />
      </mxGeometry>
    </mxCell>
      <mxCell id="b14" value="p" style="ellipse;whiteSpace=wrap;html=1;fillColor=#f8cecc;strokeColor=#b85450;" vertex="1" parent="1">
        <mxGeometry x="380" y="20" width="20" height="20" as="geometry" />
      </mxCell>
      <mxCell id="box2" value="branch-1" style="rounded=0;whiteSpace=wrap;html=1;fillColor=#dae8fc;strokeColor=#6c8ebf;" parent="1" vertex="1">
        <mxGeometry x="420" y="50" width="80" height="20" as="geometry" />
      </mxCell>
    <mxCell id="l17" value="" style="endArrow=none;html=1;rounded=1;entryX=0;entryY=0.5;entryDx=0;entryDy=0;" edge="1" parent="1" target="b5">
      <mxGeometry width="50" height="50" relative="1" as="geometry">
        <mxPoint x="0" y="60" as="sourcePoint" />
        <mxPoint x="20" y="60" as="targetPoint" />
      </mxGeometry>
    </mxCell>
      <mxCell id="b5" value="x" style="ellipse;whiteSpace=wrap;html=1;fillColor=#dae8fc;strokeColor=#6c8ebf;" vertex="1" parent="1">
        <mxGeometry x="20" y="50" width="20" height="20" as="geometry" />
      </mxCell>
    <mxCell id="l18" value="" style="endArrow=none;html=1;rounded=1;exitX=1;exitY=0.5;exitDx=0;exitDy=0;entryX=0;entryY=0.5;entryDx=0;entryDy=0;" edge="1" parent="1" source="b5" target="b8">
      <mxGeometry width="50" height="50" relative="1" as="geometry">
        <mxPoint x="40" y="60" as="sourcePoint" />
        <mxPoint x="140" y="60" as="targetPoint" />
      </mxGeometry>
    </mxCell>
      <mxCell id="b8" value="y" style="ellipse;whiteSpace=wrap;html=1;fillColor=#dae8fc;strokeColor=#6c8ebf;" vertex="1" parent="1">
        <mxGeometry x="140" y="50" width="20" height="20" as="geometry" />
      </mxCell>
    <mxCell id="l19" value="" style="endArrow=none;html=1;rounded=1;exitX=1;exitY=0.5;exitDx=0;exitDy=0;entryX=0;entryY=0.5;entryDx=0;entryDy=0;" edge="1" parent="1" source="b8" target="box2">
      <mxGeometry width="50" height="50" relative="1" as="geometry">
        <mxPoint x="160" y="60" as="sourcePoint" />
        <mxPoint x="420" y="60" as="targetPoint" />
      </mxGeometry>
    </mxCell>
      <mxCell id="box3" value="branch-2" style="rounded=0;whiteSpace=wrap;html=1;fillColor=#e1d5e7;strokeColor=#9673a6;" parent="1" vertex="1">
        <mxGeometry x="420" y="80" width="80" height="20" as="geometry" />
      </mxCell>
    <mxCell id="l20" value="" style="endArrow=none;html=1;rounded=1;exitX=0.5;exitY=1;exitDx=0;exitDy=0;entryX=0;entryY=0.5;entryDx=0;entryDy=0;" edge="1" parent="1" source="b5" target="b6">
      <mxGeometry width="50" height="50" relative="1" as="geometry">
        <mxPoint x="30" y="50" as="sourcePoint" />
        <mxPoint x="60" y="90" as="targetPoint" />
        <Array as="points">
          <mxPoint x="30" y="90" />
        </Array>
      </mxGeometry>
    </mxCell>
      <mxCell id="b6" value="a" style="ellipse;whiteSpace=wrap;html=1;fillColor=#e1d5e7;strokeColor=#9673a6;" vertex="1" parent="1">
        <mxGeometry x="60" y="80" width="20" height="20" as="geometry" />
      </mxCell>
    <mxCell id="l21" value="" style="endArrow=none;html=1;rounded=1;exitX=1;exitY=0.5;exitDx=0;exitDy=0;entryX=0;entryY=0.5;entryDx=0;entryDy=0;" edge="1" parent="1" source="b6" target="b7">
      <mxGeometry width="50" height="50" relative="1" as="geometry">
        <mxPoint x="80" y="90" as="sourcePoint" />
        <mxPoint x="100" y="90" as="targetPoint" />
      </mxGeometry>
    </mxCell>
      <mxCell id="b7" value="b" style="ellipse;whiteSpace=wrap;html=1;fillColor=#e1d5e7;strokeColor=#9673a6;" vertex="1" parent="1">
        <mxGeometry x="100" y="80" width="20" height="20" as="geometry" />
      </mxCell>
    <mxCell id="l22" value="" style="endArrow=none;html=1;rounded=1;exitX=1;exitY=0.5;exitDx=0;exitDy=0;entryX=0;entryY=0.5;entryDx=0;entryDy=0;" edge="1" parent="1" source="b7" target="b11">
      <mxGeometry width="50" height="50" relative="1" as="geometry">
        <mxPoint x="120" y="90" as="sourcePoint" />
        <mxPoint x="260" y="90" as="targetPoint" />
      </mxGeometry>
    </mxCell>
    <mxCell id="l23" value="" style="endArrow=none;html=1;rounded=1;exitX=1;exitY=0.5;exitDx=0;exitDy=0;entryX=0;entryY=0.5;entryDx=0;entryDy=0;" edge="1" parent="1" source="b8" target="b11">
      <mxGeometry width="50" height="50" relative="1" as="geometry">
        <mxPoint x="160" y="60" as="sourcePoint" />
        <mxPoint x="260" y="90" as="targetPoint" />
        <Array as="points">
          <mxPoint x="250" y="60" />
          <mxPoint x="250" y="90" />
        </Array>
      </mxGeometry>
    </mxCell>
      <mxCell id="b11" value="c" style="ellipse;whiteSpace=wrap;html=1;fillColor=#e1d5e7;strokeColor=#9673a6;" vertex="1" parent="1">
        <mxGeometry x="260" y="80" width="20" height="20" as="geometry" />
      </mxCell>
    <mxCell id="l24" value="" style="endArrow=none;html=1;rounded=1;exitX=1;exitY=0.5;exitDx=0;exitDy=0;entryX=0;entryY=0.5;entryDx=0;entryDy=0;" edge="1" parent="1" source="b11" target="box3">
      <mxGeometry width="50" height="50" relative="1" as="geometry">
        <mxPoint x="280" y="90" as="sourcePoint" />
        <mxPoint x="420" y="90" as="targetPoint" />
      </mxGeometry>
    </mxCell>
      <mxCell id="box4" value="branch-3" style="rounded=0;whiteSpace=wrap;html=1;fillColor=#d5e8d4;strokeColor=#82b366;" parent="1" vertex="1">
        <mxGeometry x="420" y="110" width="80" height="20" as="geometry" />
      </mxCell>
    <mxCell id="l25" value="" style="endArrow=none;html=1;rounded=1;exitX=0.5;exitY=1;exitDx=0;exitDy=0;entryX=0;entryY=0.5;entryDx=0;entryDy=0;" edge="1" parent="1" source="b7" target="b9">
      <mxGeometry width="50" height="50" relative="1" as="geometry">
        <mxPoint x="110" y="80" as="sourcePoint" />
        <mxPoint x="180" y="120" as="targetPoint" />
        <Array as="points">
          <mxPoint x="110" y="120" />
        </Array>
      </mxGeometry>
    </mxCell>
      <mxCell id="b9" value="e" style="ellipse;whiteSpace=wrap;html=1;fillColor=#d5e8d4;strokeColor=#82b366;" vertex="1" parent="1">
        <mxGeometry x="180" y="110" width="20" height="20" as="geometry" />
      </mxCell>
    <mxCell id="l26" value="" style="endArrow=none;html=1;rounded=1;exitX=1;exitY=0.5;exitDx=0;exitDy=0;entryX=0;entryY=0.5;entryDx=0;entryDy=0;" edge="1" parent="1" source="b9" target="b10">
      <mxGeometry width="50" height="50" relative="1" as="geometry">
        <mxPoint x="200" y="120" as="sourcePoint" />
        <mxPoint x="220" y="120" as="targetPoint" />
      </mxGeometry>
    </mxCell>
      <mxCell id="b10" value="f" style="ellipse;whiteSpace=wrap;html=1;fillColor=#d5e8d4;strokeColor=#82b366;" vertex="1" parent="1">
        <mxGeometry x="220" y="110" width="20" height="20" as="geometry" />
      </mxCell>
    <mxCell id="l27" value="" style="endArrow=none;html=1;rounded=1;exitX=1;exitY=0.5;exitDx=0;exitDy=0;entryX=0;entryY=0.5;entryDx=0;entryDy=0;" edge="1" parent="1" source="b10" target="b13">
      <mxGeometry width="50" height="50" relative="1" as="geometry">
        <mxPoint x="240" y="120" as="sourcePoint" />
        <mxPoint x="340" y="120" as="targetPoint" />
      </mxGeometry>
    </mxCell>
    <mxCell id="l28" value="" style="endArrow=none;html=1;rounded=1;exitX=1;exitY=0.5;exitDx=0;exitDy=0;entryX=0;entryY=0.5;entryDx=0;entryDy=0;" edge="1" parent="1" source="b11" target="b13">
      <mxGeometry width="50" height="50" relative="1" as="geometry">
        <mxPoint x="280" y="90" as="sourcePoint" />
        <mxPoint x="340" y="120" as="targetPoint" />
        <Array as="points">
          <mxPoint x="330" y="90" />
          <mxPoint x="330" y="120" />
        </Array>
      </mxGeometry>
    </mxCell>
      <mxCell id="b13" value="g" style="ellipse;whiteSpace=wrap;html=1;fillColor=#d5e8d4;strokeColor=#82b366;" vertex="1" parent="1">
        <mxGeometry x="340" y="110" width="20" height="20" as="geometry" />
      </mxCell>
    <mxCell id="l29" value="" style="endArrow=none;html=1;rounded=1;exitX=1;exitY=0.5;exitDx=0;exitDy=0;entryX=0;entryY=0.5;entryDx=0;entryDy=0;" edge="1" parent="1" source="b13" target="box4">
      <mxGeometry width="50" height="50" relative="1" as="geometry">
        <mxPoint x="360" y="120" as="sourcePoint" />
        <mxPoint x="420" y="120" as="targetPoint" />
      </mxGeometry>
    </mxCell>
      </root>
    </mxGraphModel>
  </diagram>
</mxfile>